<mxfile host="app.diagrams.net" modified="2021-04-24T19:52:31.678Z" agent="5.0 (Windows NT 6.1; Win64; x64) AppleWebKit/537.36 (KHTML, like Gecko) Chrome/89.0.4389.128 Safari/537.36" etag="Exr9os-t7oQ_uBHkX6UZ" version="14.6.6" type="github">
  <diagram name="Page-1" id="e7e014a7-5840-1c2e-5031-d8a46d1fe8dd">
    <mxGraphModel dx="1422" dy="762" grid="1" gridSize="10" guides="1" tooltips="1" connect="1" arrows="1" fold="1" page="1" pageScale="1" pageWidth="1169" pageHeight="826" background="#ffffff" math="0" shadow="0">
      <root>
        <mxCell id="0" />
        <mxCell id="1" parent="0" />
        <mxCell id="2" value="Педагогический работник" style="swimlane;whiteSpace=wrap" parent="1" vertex="1">
          <mxGeometry x="160" y="128" width="280" height="872" as="geometry" />
        </mxCell>
        <mxCell id="MTfeiU3DSVLbZnVPrrDz-46" value="" style="ellipse;html=1;shape=startState;fillColor=#000000;strokeColor=#ff0000;" parent="2" vertex="1">
          <mxGeometry x="125.51" y="50" width="30" height="30" as="geometry" />
        </mxCell>
        <mxCell id="MTfeiU3DSVLbZnVPrrDz-47" value="" style="edgeStyle=orthogonalEdgeStyle;html=1;verticalAlign=bottom;endArrow=open;endSize=8;strokeColor=#ff0000;" parent="2" source="MTfeiU3DSVLbZnVPrrDz-46" edge="1">
          <mxGeometry relative="1" as="geometry">
            <mxPoint x="140.51" y="140" as="targetPoint" />
          </mxGeometry>
        </mxCell>
        <mxCell id="MTfeiU3DSVLbZnVPrrDz-52" value="Запрашивает возможность повышения категории" style="rounded=1;whiteSpace=wrap;html=1;arcSize=40;fontColor=#000000;fillColor=#ffffc0;strokeColor=#ff0000;" parent="2" vertex="1">
          <mxGeometry x="60.01" y="140" width="160" height="48" as="geometry" />
        </mxCell>
        <mxCell id="MTfeiU3DSVLbZnVPrrDz-104" value="&lt;div&gt;Набрано необходимое количество баллов?&lt;/div&gt;" style="rhombus;whiteSpace=wrap;html=1;fillColor=#ffffc0;strokeColor=#ff0000;" parent="2" vertex="1">
          <mxGeometry x="40" y="352" width="180" height="92" as="geometry" />
        </mxCell>
        <mxCell id="MTfeiU3DSVLbZnVPrrDz-105" value="Нет" style="edgeStyle=orthogonalEdgeStyle;html=1;align=left;verticalAlign=bottom;endArrow=open;endSize=8;strokeColor=#ff0000;entryX=0.5;entryY=0;entryDx=0;entryDy=0;exitX=0.5;exitY=1;exitDx=0;exitDy=0;" parent="2" source="MTfeiU3DSVLbZnVPrrDz-104" target="MTfeiU3DSVLbZnVPrrDz-82" edge="1">
          <mxGeometry x="-0.4287" y="-30" relative="1" as="geometry">
            <mxPoint x="20" y="432" as="targetPoint" />
            <mxPoint as="offset" />
            <mxPoint x="30" y="694" as="sourcePoint" />
          </mxGeometry>
        </mxCell>
        <mxCell id="0BzAGdyhmC7lKJji1qwk-4" value="Конец (четверти)?" style="rhombus;whiteSpace=wrap;html=1;fillColor=#ffffc0;strokeColor=#ff0000;" parent="2" vertex="1">
          <mxGeometry x="60.010000000000005" y="610" width="140" height="80" as="geometry" />
        </mxCell>
        <mxCell id="MTfeiU3DSVLbZnVPrrDz-82" value="Добавление мероприятий в БД" style="rounded=1;whiteSpace=wrap;html=1;arcSize=40;fontColor=#000000;fillColor=#ffffc0;strokeColor=#ff0000;" parent="2" vertex="1">
          <mxGeometry x="58.88" y="500" width="142.25" height="38" as="geometry" />
        </mxCell>
        <mxCell id="0BzAGdyhmC7lKJji1qwk-13" value="" style="edgeStyle=orthogonalEdgeStyle;html=1;verticalAlign=bottom;endArrow=open;endSize=8;strokeColor=#ff0000;exitX=0.5;exitY=1;exitDx=0;exitDy=0;entryX=0;entryY=0.5;entryDx=0;entryDy=0;" parent="2" source="0BzAGdyhmC7lKJji1qwk-4" target="MTfeiU3DSVLbZnVPrrDz-82" edge="1">
          <mxGeometry relative="1" as="geometry">
            <mxPoint x="690" y="560" as="targetPoint" />
            <mxPoint x="620" y="560" as="sourcePoint" />
            <Array as="points">
              <mxPoint x="130" y="710" />
              <mxPoint x="10" y="710" />
              <mxPoint x="10" y="519" />
            </Array>
          </mxGeometry>
        </mxCell>
        <mxCell id="0BzAGdyhmC7lKJji1qwk-18" value="Нет" style="edgeLabel;html=1;align=center;verticalAlign=middle;resizable=0;points=[];" parent="0BzAGdyhmC7lKJji1qwk-13" vertex="1" connectable="0">
          <mxGeometry x="-0.6578" relative="1" as="geometry">
            <mxPoint as="offset" />
          </mxGeometry>
        </mxCell>
        <mxCell id="0BzAGdyhmC7lKJji1qwk-16" value="Проведение мероприятий в соответствии с планом" style="rounded=1;whiteSpace=wrap;html=1;arcSize=40;fontColor=#000000;fillColor=#ffffc0;strokeColor=#ff0000;" parent="2" vertex="1">
          <mxGeometry x="58.88" y="230" width="161.12" height="40" as="geometry" />
        </mxCell>
        <mxCell id="0BzAGdyhmC7lKJji1qwk-17" value="" style="edgeStyle=orthogonalEdgeStyle;html=1;verticalAlign=bottom;endArrow=open;endSize=8;strokeColor=#ff0000;" parent="2" source="0BzAGdyhmC7lKJji1qwk-16" edge="1">
          <mxGeometry relative="1" as="geometry">
            <mxPoint x="130" y="350" as="targetPoint" />
            <Array as="points">
              <mxPoint x="130" y="310" />
              <mxPoint x="130" y="310" />
            </Array>
          </mxGeometry>
        </mxCell>
        <mxCell id="MTfeiU3DSVLbZnVPrrDz-95" value="" style="edgeStyle=orthogonalEdgeStyle;html=1;verticalAlign=bottom;endArrow=open;endSize=8;strokeColor=#ff0000;entryX=0.5;entryY=0;entryDx=0;entryDy=0;exitX=0.5;exitY=1;exitDx=0;exitDy=0;" parent="2" source="MTfeiU3DSVLbZnVPrrDz-82" target="0BzAGdyhmC7lKJji1qwk-4" edge="1">
          <mxGeometry relative="1" as="geometry">
            <mxPoint x="132.2299999999999" y="534" as="targetPoint" />
            <mxPoint x="131.13" y="558" as="sourcePoint" />
            <Array as="points" />
          </mxGeometry>
        </mxCell>
        <mxCell id="3" value="Методист-Аналитик" style="swimlane;whiteSpace=wrap" parent="1" vertex="1">
          <mxGeometry x="440" y="128" width="280" height="872" as="geometry" />
        </mxCell>
        <mxCell id="MTfeiU3DSVLbZnVPrrDz-90" value="Начисление баллов." style="rounded=1;whiteSpace=wrap;html=1;arcSize=40;fontColor=#000000;fillColor=#ffffc0;strokeColor=#ff0000;" parent="3" vertex="1">
          <mxGeometry x="80" y="612" width="120" height="40" as="geometry" />
        </mxCell>
        <mxCell id="MTfeiU3DSVLbZnVPrrDz-98" value="Проверка внесенных данных" style="rounded=1;whiteSpace=wrap;html=1;arcSize=40;fontColor=#000000;fillColor=#ffffc0;strokeColor=#ff0000;" parent="3" vertex="1">
          <mxGeometry x="80" y="392" width="120" height="40" as="geometry" />
        </mxCell>
        <mxCell id="MTfeiU3DSVLbZnVPrrDz-101" value="Данные верны?" style="rhombus;whiteSpace=wrap;html=1;fillColor=#ffffc0;strokeColor=#ff0000;" parent="3" vertex="1">
          <mxGeometry x="80" y="470" width="120" height="50" as="geometry" />
        </mxCell>
        <mxCell id="MTfeiU3DSVLbZnVPrrDz-99" value="" style="edgeStyle=orthogonalEdgeStyle;html=1;verticalAlign=bottom;endArrow=open;endSize=8;strokeColor=#ff0000;" parent="3" source="MTfeiU3DSVLbZnVPrrDz-98" target="MTfeiU3DSVLbZnVPrrDz-101" edge="1">
          <mxGeometry relative="1" as="geometry">
            <mxPoint x="140" y="472" as="targetPoint" />
          </mxGeometry>
        </mxCell>
        <mxCell id="MTfeiU3DSVLbZnVPrrDz-102" value="" style="endArrow=open;endFill=1;endSize=12;html=1;entryX=0.5;entryY=0;entryDx=0;entryDy=0;exitX=0.5;exitY=1;exitDx=0;exitDy=0;" parent="3" source="MTfeiU3DSVLbZnVPrrDz-101" target="MTfeiU3DSVLbZnVPrrDz-90" edge="1">
          <mxGeometry width="160" relative="1" as="geometry">
            <mxPoint x="10" y="382" as="sourcePoint" />
            <mxPoint x="170" y="382" as="targetPoint" />
          </mxGeometry>
        </mxCell>
        <mxCell id="MTfeiU3DSVLbZnVPrrDz-103" value="&lt;div&gt;Да&lt;/div&gt;" style="edgeLabel;html=1;align=center;verticalAlign=middle;resizable=0;points=[];" parent="MTfeiU3DSVLbZnVPrrDz-102" vertex="1" connectable="0">
          <mxGeometry x="-0.3226" relative="1" as="geometry">
            <mxPoint x="-20" y="-29" as="offset" />
          </mxGeometry>
        </mxCell>
        <mxCell id="MTfeiU3DSVLbZnVPrrDz-116" value="Формирует экспертное заключение" style="rounded=1;whiteSpace=wrap;html=1;arcSize=40;fontColor=#000000;fillColor=#ffffc0;strokeColor=#ff0000;" parent="3" vertex="1">
          <mxGeometry x="70" y="698" width="140" height="42" as="geometry" />
        </mxCell>
        <mxCell id="MTfeiU3DSVLbZnVPrrDz-118" value="" style="endArrow=open;endFill=1;endSize=12;html=1;" parent="3" target="MTfeiU3DSVLbZnVPrrDz-119" edge="1">
          <mxGeometry width="160" relative="1" as="geometry">
            <mxPoint x="210" y="712" as="sourcePoint" />
            <mxPoint x="370" y="712" as="targetPoint" />
          </mxGeometry>
        </mxCell>
        <mxCell id="4" value="Методист учебного отдела" style="swimlane;whiteSpace=wrap" parent="1" vertex="1">
          <mxGeometry x="724.5" y="128" width="280" height="872" as="geometry" />
        </mxCell>
        <mxCell id="MTfeiU3DSVLbZnVPrrDz-76" value="Формирует персональную траекторию. Вносит в план." style="rounded=1;whiteSpace=wrap;html=1;arcSize=50;fontColor=#000000;fillColor=#ffffc0;strokeColor=#ff0000;" parent="4" vertex="1">
          <mxGeometry x="50" y="292" width="200" height="38" as="geometry" />
        </mxCell>
        <mxCell id="MTfeiU3DSVLbZnVPrrDz-78" value="Возможность есть?" style="rhombus;whiteSpace=wrap;html=1;fillColor=#ffffc0;strokeColor=#ff0000;" parent="4" vertex="1">
          <mxGeometry x="75.5" y="135" width="140" height="58" as="geometry" />
        </mxCell>
        <mxCell id="MTfeiU3DSVLbZnVPrrDz-79" value="Нет" style="edgeStyle=orthogonalEdgeStyle;html=1;align=left;verticalAlign=bottom;endArrow=open;endSize=8;strokeColor=#ff0000;entryX=0.5;entryY=0;entryDx=0;entryDy=0;" parent="4" source="MTfeiU3DSVLbZnVPrrDz-78" target="MTfeiU3DSVLbZnVPrrDz-76" edge="1">
          <mxGeometry x="-1" y="94" relative="1" as="geometry">
            <mxPoint x="135.5" y="352" as="targetPoint" />
            <Array as="points">
              <mxPoint x="150" y="292" />
              <mxPoint x="150" y="292" />
            </Array>
            <mxPoint x="-8" y="-38" as="offset" />
          </mxGeometry>
        </mxCell>
        <mxCell id="MTfeiU3DSVLbZnVPrrDz-81" value="" style="ellipse;html=1;shape=endState;fillColor=#000000;strokeColor=#ff0000;" parent="4" vertex="1">
          <mxGeometry x="215.5" y="417" width="30" height="30" as="geometry" />
        </mxCell>
        <mxCell id="MTfeiU3DSVLbZnVPrrDz-80" value="Да" style="edgeStyle=orthogonalEdgeStyle;html=1;align=left;verticalAlign=top;endArrow=open;endSize=8;strokeColor=#ff0000;exitX=1;exitY=0.5;exitDx=0;exitDy=0;" parent="4" source="MTfeiU3DSVLbZnVPrrDz-78" target="MTfeiU3DSVLbZnVPrrDz-81" edge="1">
          <mxGeometry x="-1" y="-68" relative="1" as="geometry">
            <mxPoint x="265.5" y="432" as="targetPoint" />
            <Array as="points">
              <mxPoint x="266" y="164" />
              <mxPoint x="266" y="432" />
            </Array>
            <mxPoint x="-54" y="-27" as="offset" />
          </mxGeometry>
        </mxCell>
        <mxCell id="MTfeiU3DSVLbZnVPrrDz-114" value="" style="ellipse;html=1;shape=endState;fillColor=#000000;strokeColor=#ff0000;" parent="4" vertex="1">
          <mxGeometry x="95" y="802" width="30" height="30" as="geometry" />
        </mxCell>
        <mxCell id="MTfeiU3DSVLbZnVPrrDz-119" value="Редактирует. Утверждает." style="rounded=1;whiteSpace=wrap;html=1;arcSize=40;fontColor=#000000;fillColor=#ffffc0;strokeColor=#ff0000;" parent="4" vertex="1">
          <mxGeometry x="50" y="692" width="120" height="40" as="geometry" />
        </mxCell>
        <mxCell id="MTfeiU3DSVLbZnVPrrDz-120" value="" style="endArrow=open;endFill=1;endSize=12;html=1;exitX=0.5;exitY=1;exitDx=0;exitDy=0;entryX=0.5;entryY=0;entryDx=0;entryDy=0;" parent="4" source="MTfeiU3DSVLbZnVPrrDz-119" target="MTfeiU3DSVLbZnVPrrDz-114" edge="1">
          <mxGeometry width="160" relative="1" as="geometry">
            <mxPoint x="115.5" y="762" as="sourcePoint" />
            <mxPoint x="275.5" y="762" as="targetPoint" />
          </mxGeometry>
        </mxCell>
        <mxCell id="MTfeiU3DSVLbZnVPrrDz-42" value="&lt;font style=&quot;font-size: 24px&quot;&gt;Общий бизнес-процесс (as-is) заполнения портфолио педагогического работника&lt;/font&gt;" style="text;html=1;strokeColor=none;fillColor=none;align=center;verticalAlign=middle;whiteSpace=wrap;rounded=0;" parent="1" vertex="1">
          <mxGeometry x="202" y="50" width="780" height="20" as="geometry" />
        </mxCell>
        <mxCell id="MTfeiU3DSVLbZnVPrrDz-84" value="" style="endArrow=open;endFill=1;endSize=12;html=1;exitX=0;exitY=0.5;exitDx=0;exitDy=0;fillColor=#e51400;strokeColor=#B20000;entryX=1;entryY=0.5;entryDx=0;entryDy=0;" parent="1" source="MTfeiU3DSVLbZnVPrrDz-76" target="0BzAGdyhmC7lKJji1qwk-16" edge="1">
          <mxGeometry width="160" relative="1" as="geometry">
            <mxPoint x="500" y="510" as="sourcePoint" />
            <mxPoint x="291" y="500" as="targetPoint" />
            <Array as="points">
              <mxPoint x="740" y="439" />
              <mxPoint x="740" y="378" />
            </Array>
          </mxGeometry>
        </mxCell>
        <mxCell id="MTfeiU3DSVLbZnVPrrDz-115" value="" style="endArrow=open;endFill=1;endSize=12;html=1;entryX=0;entryY=0.5;entryDx=0;entryDy=0;" parent="1" source="MTfeiU3DSVLbZnVPrrDz-52" target="MTfeiU3DSVLbZnVPrrDz-78" edge="1">
          <mxGeometry width="160" relative="1" as="geometry">
            <mxPoint x="450" y="300" as="sourcePoint" />
            <mxPoint x="610" y="300" as="targetPoint" />
          </mxGeometry>
        </mxCell>
        <mxCell id="0BzAGdyhmC7lKJji1qwk-5" value="Да" style="edgeStyle=orthogonalEdgeStyle;html=1;align=left;verticalAlign=bottom;endArrow=open;endSize=8;strokeColor=#ff0000;entryX=0;entryY=0.5;entryDx=0;entryDy=0;" parent="1" target="MTfeiU3DSVLbZnVPrrDz-98" edge="1">
          <mxGeometry x="-1" relative="1" as="geometry">
            <mxPoint x="430" y="630" as="targetPoint" />
            <mxPoint x="361" y="780" as="sourcePoint" />
            <Array as="points">
              <mxPoint x="361" y="780" />
              <mxPoint x="460" y="780" />
              <mxPoint x="460" y="540" />
            </Array>
          </mxGeometry>
        </mxCell>
        <mxCell id="MTfeiU3DSVLbZnVPrrDz-86" value="Формирование портфолио производится произвольно" style="shape=note2;boundedLbl=1;whiteSpace=wrap;html=1;size=25;verticalAlign=top;align=center;" parent="1" vertex="1">
          <mxGeometry x="70" y="462" width="94.5" height="95" as="geometry" />
        </mxCell>
        <mxCell id="MTfeiU3DSVLbZnVPrrDz-87" value="" style="endArrow=none;dashed=1;html=1;exitX=0.25;exitY=0;exitDx=0;exitDy=0;entryX=0.624;entryY=1.042;entryDx=0;entryDy=0;entryPerimeter=0;" parent="1" source="MTfeiU3DSVLbZnVPrrDz-82" target="MTfeiU3DSVLbZnVPrrDz-86" edge="1">
          <mxGeometry width="50" height="50" relative="1" as="geometry">
            <mxPoint x="167.75" y="606" as="sourcePoint" />
            <mxPoint x="217.75" y="556" as="targetPoint" />
          </mxGeometry>
        </mxCell>
        <mxCell id="MTfeiU3DSVLbZnVPrrDz-113" value="" style="edgeStyle=orthogonalEdgeStyle;html=1;verticalAlign=bottom;endArrow=open;endSize=8;strokeColor=#ff0000;exitX=1;exitY=0.5;exitDx=0;exitDy=0;entryX=0;entryY=0.5;entryDx=0;entryDy=0;" parent="1" source="MTfeiU3DSVLbZnVPrrDz-104" target="MTfeiU3DSVLbZnVPrrDz-116" edge="1">
          <mxGeometry relative="1" as="geometry">
            <mxPoint x="190" y="665" as="targetPoint" />
            <Array as="points">
              <mxPoint x="410" y="526" />
              <mxPoint x="410" y="847" />
            </Array>
            <mxPoint x="190" y="925" as="sourcePoint" />
          </mxGeometry>
        </mxCell>
        <mxCell id="0BzAGdyhmC7lKJji1qwk-11" value="Да" style="edgeLabel;html=1;align=center;verticalAlign=middle;resizable=0;points=[];" parent="MTfeiU3DSVLbZnVPrrDz-113" vertex="1" connectable="0">
          <mxGeometry x="-0.8042" relative="1" as="geometry">
            <mxPoint as="offset" />
          </mxGeometry>
        </mxCell>
        <mxCell id="0BzAGdyhmC7lKJji1qwk-15" value="" style="edgeStyle=orthogonalEdgeStyle;html=1;verticalAlign=bottom;endArrow=open;endSize=8;strokeColor=#ff0000;exitX=0;exitY=0.5;exitDx=0;exitDy=0;entryX=0.5;entryY=0;entryDx=0;entryDy=0;" parent="1" source="MTfeiU3DSVLbZnVPrrDz-90" target="0BzAGdyhmC7lKJji1qwk-16" edge="1">
          <mxGeometry relative="1" as="geometry">
            <mxPoint x="890" y="710" as="targetPoint" />
            <mxPoint x="790" y="710" as="sourcePoint" />
            <Array as="points">
              <mxPoint x="480" y="760" />
              <mxPoint x="480" y="340" />
              <mxPoint x="299" y="340" />
            </Array>
          </mxGeometry>
        </mxCell>
        <mxCell id="0BzAGdyhmC7lKJji1qwk-20" value="" style="edgeStyle=orthogonalEdgeStyle;html=1;verticalAlign=bottom;endArrow=open;endSize=8;strokeColor=#ff0000;exitX=1;exitY=0.5;exitDx=0;exitDy=0;entryX=0.175;entryY=-0.05;entryDx=0;entryDy=0;entryPerimeter=0;" parent="1" source="MTfeiU3DSVLbZnVPrrDz-101" target="0BzAGdyhmC7lKJji1qwk-16" edge="1">
          <mxGeometry relative="1" as="geometry">
            <mxPoint x="710" y="623" as="targetPoint" />
            <Array as="points">
              <mxPoint x="711" y="623" />
              <mxPoint x="711" y="330" />
              <mxPoint x="247" y="330" />
            </Array>
          </mxGeometry>
        </mxCell>
        <mxCell id="0BzAGdyhmC7lKJji1qwk-21" value="Нет" style="edgeLabel;html=1;align=center;verticalAlign=middle;resizable=0;points=[];" parent="0BzAGdyhmC7lKJji1qwk-20" vertex="1" connectable="0">
          <mxGeometry x="-0.8708" relative="1" as="geometry">
            <mxPoint x="-44" y="7" as="offset" />
          </mxGeometry>
        </mxCell>
      </root>
    </mxGraphModel>
  </diagram>
</mxfile>
